<svg xmlns="http://www.w3.org/2000/svg" width="1526" height="1872" viewBox="0 0 1526 1872" font-family="DejaVu Sans,Verdana,sans-serif">

<defs>
  <pattern id="ruin" width="7" height="7" patternUnits="userSpaceOnUse" patternTransform="rotate(45)">
    <line x1="0" y1="0" x2="0" y2="7" stroke="#a49a86" stroke-width="1.4"/>
  </pattern>
  <pattern id="gravel" width="6" height="6" patternUnits="userSpaceOnUse">
    <circle cx="1.5" cy="1.5" r="0.8" fill="#b9ad93"/><circle cx="4.5" cy="4" r="0.7" fill="#b9ad93"/>
  </pattern>
</defs>
<rect width="1526" height="1872" fill="#efe9dc"/>
<rect x="286.0" y="990.6" width="266.5" height="52.0" fill="#e3d8bd" stroke="#cfc2a2" stroke-width="0.8"/>
<rect x="299.0" y="569.4" width="253.5" height="52.0" fill="#e3d8bd" stroke="#cfc2a2" stroke-width="0.8"/>
<rect x="312.0" y="759.2" width="240.5" height="52.0" fill="#e3d8bd" stroke="#cfc2a2" stroke-width="0.8"/>
<rect x="721.5" y="782.6" width="292.5" height="78.0" fill="#e3d8bd" stroke="#cfc2a2" stroke-width="0.8"/>
<rect x="721.5" y="1068.6" width="292.5" height="208.0" fill="url(#gravel)" stroke="#cfc2a2" stroke-width="0.8"/>
<rect x="247.0" y="1456.0" width="780.0" height="78.0" fill="#e3d8bd" stroke="#cfc2a2" stroke-width="0.8"/>
<rect x="552.5" y="286.0" width="169.0" height="1352.0" fill="#94907f" stroke="none"/>
<line x1="552.5" y1="1638.0" x2="552.5" y2="286.0" stroke="#6f6b5d" stroke-width="2.5"/>
<line x1="721.5" y1="1638.0" x2="721.5" y2="286.0" stroke="#6f6b5d" stroke-width="2.5"/>
<line x1="637.0" y1="1638.0" x2="637.0" y2="286.0" stroke="#c9c4b2" stroke-width="1.2" stroke-dasharray="8 7"/>
<rect x="525.2" y="1415.7" width="75.4" height="41.6" fill="#5c574c" stroke="#39352c" stroke-width="1.5"/>
<rect x="673.4" y="1408.5" width="42.9" height="48.8" fill="#5c574c" stroke="#39352c" stroke-width="1.5"/>
<rect x="673.4" y="1408.5" width="42.9" height="48.8" fill="#6b6558" stroke="#39352c" stroke-width="1.5"/>
<text x="620.75" y="1440.5" font-size="10" fill="#efe9dc" text-anchor="middle" font-weight="bold">GATE</text>
<rect x="396.5" y="390.0" width="156.0" height="182.0" fill="#f8f4e9" stroke="#3a3630" stroke-width="2.2"/>
<line x1="465.7" y1="567.6" x2="465.7" y2="394.4" stroke="#6b6255" stroke-width="1.6"/>
<text x="506.9" y="481.0" font-size="9.5" fill="#8a7f6c" text-anchor="middle" font-style="italic">living</text>
<text x="474.5" y="507" font-size="13" font-weight="bold" fill="#2b2823" text-anchor="middle">W5</text>
<text x="474.5" y="519" font-size="9.5" fill="#7d7462" text-anchor="middle">2F</text>
<rect x="370.5" y="624.0" width="182.0" height="130.0" fill="#f8f4e9" stroke="#3a3630" stroke-width="2.2"/>
<line x1="447.6" y1="749.6" x2="447.6" y2="628.4" stroke="#6b6255" stroke-width="1.6"/>
<text x="497.9" y="689.0" font-size="9.5" fill="#8a7f6c" text-anchor="middle" font-style="italic">shop</text>
<text x="461.5" y="715" font-size="13" font-weight="bold" fill="#2b2823" text-anchor="middle">W1</text>
<text x="461.5" y="727" font-size="9.5" fill="#7d7462" text-anchor="middle">2F</text>
<rect x="357.5" y="819.0" width="195.0" height="169.0" fill="#f8f4e9" stroke="#3a3630" stroke-width="2.2"/>
<line x1="464.3" y1="983.6" x2="464.3" y2="936.3" stroke="#6b6255" stroke-width="1.6"/>
<line x1="464.3" y1="922.0" x2="464.3" y2="823.4" stroke="#6b6255" stroke-width="1.6"/>
<line x1="361.9" y1="900.3" x2="426.4" y2="900.3" stroke="#6b6255" stroke-width="1.6"/>
<line x1="440.7" y1="900.3" x2="464.3" y2="900.3" stroke="#6b6255" stroke-width="1.6"/>
<text x="506.2" y="903.5" font-size="9.5" fill="#8a7f6c" text-anchor="middle" font-style="italic">shop</text>
<text x="413.1" y="941.9" font-size="9.5" fill="#8a7f6c" text-anchor="middle" font-style="italic">storage</text>
<text x="413.1" y="861.9" font-size="9.5" fill="#8a7f6c" text-anchor="middle" font-style="italic">living</text>
<rect x="371.8" y="864.5" width="31.2" height="81.9" fill="none" stroke="#6b6255" stroke-width="1.1" stroke-dasharray="4 3"/>
<text x="387.40000000000003" y="903.45" font-size="8" fill="#6b6255" text-anchor="middle">void</text>
<polygon points="380.2,938.7 395.8,938.7 395.8,881.5 380.2,881.5" fill="#efe7d2" stroke="#6b6255" stroke-width="1.1"/>
<defs><marker id="ahW2" markerWidth="7" markerHeight="7" refX="3" refY="3.5" orient="auto"><path d="M0,0 L6,3.5 L0,7 z" fill="#6b6255"/></marker></defs>
<line x1="388.0" y1="930.9" x2="388.0" y2="888.0" stroke="#6b6255" stroke-width="1.4" marker-end="url(#ahW2)"/>
<text x="387.9824" y="958.7351999999998" font-size="8" fill="#6b6255" text-anchor="middle">stairs</text>
<text x="455" y="929.5" font-size="13" font-weight="bold" fill="#2b2823" text-anchor="middle">W2</text>
<text x="455" y="941.5" font-size="9.5" fill="#7d7462" text-anchor="middle">2F</text>
<rect x="383.5" y="1040.0" width="169.0" height="182.0" fill="#f8f4e9" stroke="#3a3630" stroke-width="2.2"/>
<rect x="383.5" y="1040.0" width="169.0" height="182.0" fill="url(#ruin)" stroke="none"/>
<line x1="468.0" y1="1217.6" x2="468.0" y2="1174.1" stroke="#6b6255" stroke-width="1.6"/>
<line x1="468.0" y1="1159.8" x2="468.0" y2="1105.0" stroke="#6b6255" stroke-width="1.6"/>
<text x="508.0" y="1131.0" font-size="9.5" fill="#8a7f6c" text-anchor="middle" font-style="italic">ruin</text>
<text x="428.0" y="1161.3" font-size="9.5" fill="#8a7f6c" text-anchor="middle" font-style="italic">ruin</text>
<text x="428.0" y="1074.7" font-size="9.5" fill="#8a7f6c" text-anchor="middle" font-style="italic">storage</text>
<text x="468" y="1157" font-size="13" font-weight="bold" fill="#2b2823" text-anchor="middle">W3</text>
<text x="468" y="1169" font-size="9.5" fill="#7d7462" text-anchor="middle">2F · ruin</text>
<rect x="344.5" y="1235.0" width="208.0" height="162.5" fill="#f8f4e9" stroke="#3a3630" stroke-width="2.2"/>
<line x1="432.6" y1="1393.1" x2="432.6" y2="1239.4" stroke="#6b6255" stroke-width="1.6"/>
<text x="490.3" y="1316.3" font-size="9.5" fill="#8a7f6c" text-anchor="middle" font-style="italic">workshop</text>
<text x="448.5" y="1342.25" font-size="13" font-weight="bold" fill="#2b2823" text-anchor="middle">W4</text>
<text x="448.5" y="1354.25" font-size="9.5" fill="#7d7462" text-anchor="middle">2F</text>
<rect x="721.5" y="364.0" width="156.0" height="182.0" fill="#f8f4e9" stroke="#3a3630" stroke-width="2.2"/>
<line x1="808.3" y1="541.6" x2="808.3" y2="368.4" stroke="#6b6255" stroke-width="1.6"/>
<text x="767.1" y="455.0" font-size="9.5" fill="#8a7f6c" text-anchor="middle" font-style="italic">storage</text>
<text x="799.5" y="481" font-size="13" font-weight="bold" fill="#2b2823" text-anchor="middle">E5</text>
<text x="799.5" y="493" font-size="9.5" fill="#7d7462" text-anchor="middle">2F</text>
<rect x="721.5" y="572.0" width="195.0" height="208.0" fill="#f8f4e9" stroke="#3a3630" stroke-width="2.2"/>
<line x1="725.9" y1="691.9" x2="753.4" y2="691.9" stroke="#6b6255" stroke-width="1.6"/>
<line x1="767.7" y1="691.9" x2="841.3" y2="691.9" stroke="#6b6255" stroke-width="1.6"/>
<line x1="841.3" y1="775.6" x2="841.3" y2="740.9" stroke="#6b6255" stroke-width="1.6"/>
<line x1="841.3" y1="726.6" x2="841.3" y2="691.9" stroke="#6b6255" stroke-width="1.6"/>
<text x="783.6" y="634.2" font-size="9.5" fill="#8a7f6c" text-anchor="middle" font-style="italic">shop</text>
<text x="783.6" y="733.8" font-size="9.5" fill="#8a7f6c" text-anchor="middle" font-style="italic">storage</text>
<rect x="848.9" y="673.4" width="23.4" height="88.4" fill="none" stroke="#6b6255" stroke-width="1.1" stroke-dasharray="4 3"/>
<text x="860.6" y="715.6" font-size="8" fill="#6b6255" text-anchor="middle">void</text>
<rect x="848.9" y="673.4" width="23.4" height="88.4" fill="none" stroke="#6b6255" stroke-width="1.1" stroke-dasharray="4 3"/>
<text x="860.6" y="715.6" font-size="8" fill="#6b6255" text-anchor="middle">void</text>
<polygon points="852.2,751.7 867.8,751.7 867.8,694.5 852.2,694.5" fill="#efe7d2" stroke="#6b6255" stroke-width="1.1"/>
<defs><marker id="ahE1" markerWidth="7" markerHeight="7" refX="3" refY="3.5" orient="auto"><path d="M0,0 L6,3.5 L0,7 z" fill="#6b6255"/></marker></defs>
<line x1="860.0" y1="743.9" x2="860.0" y2="701.0" stroke="#6b6255" stroke-width="1.4" marker-end="url(#ahE1)"/>
<text x="859.9551999999999" y="771.6808000000001" font-size="8" fill="#6b6255" text-anchor="middle">stairs</text>
<text x="819" y="702" font-size="13" font-weight="bold" fill="#2b2823" text-anchor="middle">E1</text>
<text x="819" y="714" font-size="9.5" fill="#7d7462" text-anchor="middle">3F</text>
<rect x="721.5" y="858.0" width="182.0" height="182.0" fill="#f8f4e9" stroke="#3a3630" stroke-width="2.2"/>
<line x1="822.9" y1="1035.6" x2="822.9" y2="862.4" stroke="#6b6255" stroke-width="1.6"/>
<text x="774.4" y="987.1" font-size="9.5" fill="#8a7f6c" text-anchor="middle" font-style="italic">shop</text>
<text x="774.4" y="900.5" font-size="9.5" fill="#8a7f6c" text-anchor="middle" font-style="italic">ruin</text>
<text x="812.5" y="975" font-size="13" font-weight="bold" fill="#2b2823" text-anchor="middle">E2</text>
<text x="812.5" y="987" font-size="9.5" fill="#7d7462" text-anchor="middle">3F</text>
<rect x="721.5" y="1066.0" width="195.0" height="208.0" fill="#f8f4e9" stroke="#3a3630" stroke-width="2.2"/>
<rect x="721.5" y="1066.0" width="195.0" height="208.0" fill="url(#ruin)" stroke="none"/>
<line x1="809.7" y1="1269.6" x2="809.7" y2="1221.0" stroke="#6b6255" stroke-width="1.6"/>
<line x1="809.7" y1="1206.7" x2="809.7" y2="1130.2" stroke="#6b6255" stroke-width="1.6"/>
<text x="860.9" y="1170.0" font-size="9.5" fill="#8a7f6c" text-anchor="middle" font-style="italic">ruin</text>
<text x="767.8" y="1199.9" font-size="9.5" fill="#8a7f6c" text-anchor="middle" font-style="italic">storage</text>
<text x="767.8" y="1100.3" font-size="9.5" fill="#8a7f6c" text-anchor="middle" font-style="italic">ruin</text>
<text x="819" y="1196" font-size="13" font-weight="bold" fill="#2b2823" text-anchor="middle">E3</text>
<text x="819" y="1208" font-size="9.5" fill="#7d7462" text-anchor="middle">2F · ruin · collapsed</text>
<rect x="721.5" y="1300.0" width="182.0" height="182.0" fill="#f8f4e9" stroke="#3a3630" stroke-width="2.2"/>
<line x1="822.9" y1="1477.6" x2="822.9" y2="1304.4" stroke="#6b6255" stroke-width="1.6"/>
<text x="774.4" y="1391.0" font-size="9.5" fill="#8a7f6c" text-anchor="middle" font-style="italic">storage</text>
<text x="812.5" y="1417" font-size="13" font-weight="bold" fill="#2b2823" text-anchor="middle">E4</text>
<text x="812.5" y="1429" font-size="9.5" fill="#7d7462" text-anchor="middle">3F</text>
<rect x="526.5" y="1521.0" width="117.0" height="104.0" fill="#ccc5b2" stroke="#8d8672" stroke-width="1.6"/>
<text x="585" y="1577" font-size="13" font-weight="bold" fill="#2b2823" text-anchor="middle">BS3</text>
<text x="585" y="1589" font-size="9.5" fill="#7d7462" text-anchor="middle">4F</text>
<rect x="143.0" y="637.0" width="208.0" height="286.0" fill="#ccc5b2" stroke="#8d8672" stroke-width="1.6"/>
<text x="247" y="784" font-size="13" font-weight="bold" fill="#2b2823" text-anchor="middle">BW1</text>
<text x="247" y="796" font-size="9.5" fill="#7d7462" text-anchor="middle">3F</text>
<rect x="109.2" y="962.0" width="234.0" height="312.0" fill="#ccc5b2" stroke="#8d8672" stroke-width="1.6"/>
<text x="226.2" y="1122" font-size="13" font-weight="bold" fill="#2b2823" text-anchor="middle">BW2</text>
<text x="226.2" y="1134" font-size="9.5" fill="#7d7462" text-anchor="middle">2F</text>
<rect x="923.0" y="520.0" width="234.0" height="260.0" fill="#ccc5b2" stroke="#8d8672" stroke-width="1.6"/>
<text x="1040" y="654" font-size="13" font-weight="bold" fill="#2b2823" text-anchor="middle">BE1</text>
<text x="1040" y="666" font-size="9.5" fill="#7d7462" text-anchor="middle">3F</text>
<rect x="936.0" y="858.0" width="234.0" height="260.0" fill="#ccc5b2" stroke="#8d8672" stroke-width="1.6"/>
<text x="1053" y="992" font-size="13" font-weight="bold" fill="#2b2823" text-anchor="middle">BE2</text>
<text x="1053" y="1004" font-size="9.5" fill="#7d7462" text-anchor="middle">2F</text>
<rect x="923.0" y="1209.0" width="208.0" height="234.0" fill="#ccc5b2" stroke="#8d8672" stroke-width="1.6"/>
<text x="1027" y="1330" font-size="13" font-weight="bold" fill="#2b2823" text-anchor="middle">BE3</text>
<text x="1027" y="1342" font-size="9.5" fill="#7d7462" text-anchor="middle">3F</text>
<rect x="260.0" y="1547.0" width="260.0" height="182.0" fill="#ccc5b2" stroke="#8d8672" stroke-width="1.6"/>
<text x="390" y="1642" font-size="13" font-weight="bold" fill="#2b2823" text-anchor="middle">BS1</text>
<text x="390" y="1654" font-size="9.5" fill="#7d7462" text-anchor="middle">3F</text>
<rect x="663.0" y="1560.0" width="312.0" height="208.0" fill="#ccc5b2" stroke="#8d8672" stroke-width="1.6"/>
<text x="819" y="1668" font-size="13" font-weight="bold" fill="#2b2823" text-anchor="middle">BS2</text>
<text x="819" y="1680" font-size="9.5" fill="#7d7462" text-anchor="middle">2F</text>
<rect x="299.0" y="143.0" width="260.0" height="182.0" fill="#ccc5b2" stroke="#8d8672" stroke-width="1.6"/>
<text x="429" y="238" font-size="13" font-weight="bold" fill="#2b2823" text-anchor="middle">BN1</text>
<text x="429" y="250" font-size="9.5" fill="#7d7462" text-anchor="middle">2F</text>
<rect x="676.0" y="104.0" width="286.0" height="208.0" fill="#ccc5b2" stroke="#8d8672" stroke-width="1.6"/>
<text x="819" y="212" font-size="13" font-weight="bold" fill="#2b2823" text-anchor="middle">BN2</text>
<text x="819" y="224" font-size="9.5" fill="#7d7462" text-anchor="middle">3F</text>
<line x1="505.7" y1="572.0" x2="482.3" y2="572.0" stroke="#1f7a4d" stroke-width="5" stroke-linecap="round"/>
<line x1="482.3" y1="572.0" x2="482.3" y2="548.6" stroke="#1f7a4d" stroke-width="1.2"/>
<path d="M 482.3 548.6 A 23.4 23.4 0 0 1 505.7 572.0" fill="none" stroke="#1f7a4d" stroke-width="1" opacity="0.75"/>
<line x1="552.5" y1="505.7" x2="552.5" y2="529.1" stroke="#1f7a4d" stroke-width="5" stroke-linecap="round"/>
<line x1="552.5" y1="529.1" x2="529.1" y2="529.1" stroke="#1f7a4d" stroke-width="1.2"/>
<path d="M 529.1 529.1 A 23.4 23.4 0 0 1 552.5 505.7" fill="none" stroke="#1f7a4d" stroke-width="1" opacity="0.75"/>
<line x1="552.5" y1="677.3" x2="552.5" y2="700.7" stroke="#1f7a4d" stroke-width="5" stroke-linecap="round"/>
<line x1="552.5" y1="700.7" x2="529.1" y2="700.7" stroke="#1f7a4d" stroke-width="1.2"/>
<path d="M 529.1 700.7 A 23.4 23.4 0 0 1 552.5 677.3" fill="none" stroke="#1f7a4d" stroke-width="1" opacity="0.75"/>
<line x1="413.4" y1="624.0" x2="436.8" y2="624.0" stroke="#1f7a4d" stroke-width="5" stroke-linecap="round"/>
<line x1="436.8" y1="624.0" x2="436.8" y2="647.4" stroke="#1f7a4d" stroke-width="1.2"/>
<path d="M 436.8 647.4 A 23.4 23.4 0 0 1 413.4 624.0" fill="none" stroke="#1f7a4d" stroke-width="1" opacity="0.75"/>
<line x1="552.5" y1="908.4" x2="552.5" y2="940.9" stroke="#1f7a8c" stroke-width="6" stroke-linecap="round"/>
<line x1="552.5" y1="870.7" x2="552.5" y2="894.1" stroke="#1f7a4d" stroke-width="5" stroke-linecap="round"/>
<line x1="552.5" y1="894.1" x2="529.1" y2="894.1" stroke="#1f7a4d" stroke-width="1.2"/>
<path d="M 529.1 894.1 A 23.4 23.4 0 0 1 552.5 870.7" fill="none" stroke="#1f7a4d" stroke-width="1" opacity="0.75"/>
<line x1="552.5" y1="1192.1" x2="552.5" y2="1215.5" stroke="#1f7a4d" stroke-width="5" stroke-linecap="round"/>
<line x1="552.5" y1="1215.5" x2="529.1" y2="1215.5" stroke="#1f7a4d" stroke-width="1.2"/>
<path d="M 529.1 1215.5 A 23.4 23.4 0 0 1 552.5 1192.1" fill="none" stroke="#1f7a4d" stroke-width="1" opacity="0.75"/>
<line x1="501.8" y1="1397.5" x2="478.4" y2="1397.5" stroke="#1f7a4d" stroke-width="5" stroke-linecap="round"/>
<line x1="478.4" y1="1397.5" x2="478.4" y2="1374.1" stroke="#1f7a4d" stroke-width="1.2"/>
<path d="M 478.4 1374.1 A 23.4 23.4 0 0 1 501.8 1397.5" fill="none" stroke="#1f7a4d" stroke-width="1" opacity="0.75"/>
<line x1="552.5" y1="1243.6" x2="552.5" y2="1267.0" stroke="#1f7a4d" stroke-width="5" stroke-linecap="round"/>
<line x1="552.5" y1="1267.0" x2="529.1" y2="1267.0" stroke="#1f7a4d" stroke-width="1.2"/>
<path d="M 529.1 1267.0 A 23.4 23.4 0 0 1 552.5 1243.6" fill="none" stroke="#1f7a4d" stroke-width="1" opacity="0.75"/>
<line x1="721.5" y1="466.7" x2="721.5" y2="443.3" stroke="#1f7a4d" stroke-width="5" stroke-linecap="round"/>
<line x1="721.5" y1="443.3" x2="744.9" y2="443.3" stroke="#1f7a4d" stroke-width="1.2"/>
<path d="M 744.9 443.3 A 23.4 23.4 0 0 1 721.5 466.7" fill="none" stroke="#1f7a4d" stroke-width="1" opacity="0.75"/>
<line x1="791.7" y1="780.0" x2="768.3" y2="780.0" stroke="#1f7a4d" stroke-width="5" stroke-linecap="round"/>
<line x1="768.3" y1="780.0" x2="768.3" y2="756.6" stroke="#1f7a4d" stroke-width="1.2"/>
<path d="M 768.3 756.6 A 23.4 23.4 0 0 1 791.7 780.0" fill="none" stroke="#1f7a4d" stroke-width="1" opacity="0.75"/>
<line x1="721.5" y1="687.7" x2="721.5" y2="664.3" stroke="#1f7a4d" stroke-width="5" stroke-linecap="round"/>
<line x1="721.5" y1="664.3" x2="744.9" y2="664.3" stroke="#1f7a4d" stroke-width="1.2"/>
<path d="M 744.9 664.3 A 23.4 23.4 0 0 1 721.5 687.7" fill="none" stroke="#1f7a4d" stroke-width="1" opacity="0.75"/>
<line x1="764.4" y1="858.0" x2="787.8" y2="858.0" stroke="#1f7a4d" stroke-width="5" stroke-linecap="round"/>
<line x1="787.8" y1="858.0" x2="787.8" y2="881.4" stroke="#1f7a4d" stroke-width="1.2"/>
<path d="M 787.8 881.4 A 23.4 23.4 0 0 1 764.4 858.0" fill="none" stroke="#1f7a4d" stroke-width="1" opacity="0.75"/>
<line x1="721.5" y1="924.3" x2="721.5" y2="900.9" stroke="#1f7a4d" stroke-width="5" stroke-linecap="round"/>
<line x1="721.5" y1="900.9" x2="744.9" y2="900.9" stroke="#1f7a4d" stroke-width="1.2"/>
<path d="M 744.9 900.9 A 23.4 23.4 0 0 1 721.5 924.3" fill="none" stroke="#1f7a4d" stroke-width="1" opacity="0.75"/>
<line x1="721.5" y1="1140.1" x2="721.5" y2="1116.7" stroke="#1f7a4d" stroke-width="5" stroke-linecap="round"/>
<line x1="721.5" y1="1116.7" x2="744.9" y2="1116.7" stroke="#1f7a4d" stroke-width="1.2"/>
<path d="M 744.9 1116.7 A 23.4 23.4 0 0 1 721.5 1140.1" fill="none" stroke="#1f7a4d" stroke-width="1" opacity="0.75"/>
<line x1="787.8" y1="1482.0" x2="764.4" y2="1482.0" stroke="#1f7a4d" stroke-width="5" stroke-linecap="round"/>
<line x1="764.4" y1="1482.0" x2="764.4" y2="1458.6" stroke="#1f7a4d" stroke-width="1.2"/>
<path d="M 764.4 1458.6 A 23.4 23.4 0 0 1 787.8 1482.0" fill="none" stroke="#1f7a4d" stroke-width="1" opacity="0.75"/>
<line x1="721.5" y1="1402.7" x2="721.5" y2="1379.3" stroke="#1f7a4d" stroke-width="5" stroke-linecap="round"/>
<line x1="721.5" y1="1379.3" x2="744.9" y2="1379.3" stroke="#1f7a4d" stroke-width="1.2"/>
<path d="M 744.9 1379.3 A 23.4 23.4 0 0 1 721.5 1402.7" fill="none" stroke="#1f7a4d" stroke-width="1" opacity="0.75"/>
<circle cx="747.5" cy="819.0" r="8.8" fill="#4c8a4c" stroke="#2f5c2f" stroke-width="0.9" opacity="0.9"/>
<circle cx="823.6" cy="850.7" r="3.3" fill="none" stroke="#3c3a34" stroke-width="1.1"/>
<circle cx="829.6" cy="825.6" r="3.3" fill="none" stroke="#3c3a34" stroke-width="1.1"/>
<circle cx="889.6" cy="786.6" r="4.4" fill="none" stroke="#3c3a34" stroke-width="1.1"/>
<circle cx="903.1" cy="1529.9" r="4.3" fill="none" stroke="#3c3a34" stroke-width="1.1"/>
<circle cx="770.7" cy="580.5" r="3.1" fill="none" stroke="#3c3a34" stroke-width="1.1"/>
<circle cx="838.9" cy="702.8" r="2.7" fill="none" stroke="#3c3a34" stroke-width="1.1"/>
<circle cx="824.8" cy="719.7" r="4.3" fill="none" stroke="#3c3a34" stroke-width="1.1"/>
<circle cx="825.2" cy="719.5" r="4.3" fill="none" stroke="#3c3a34" stroke-width="1.1"/>
<circle cx="798.5" cy="723.5" r="4.3" fill="none" stroke="#3c3a34" stroke-width="1.1"/>
<circle cx="881.9" cy="1074.4" r="3.4" fill="none" stroke="#3c3a34" stroke-width="1.1"/>
<circle cx="812.5" cy="1143.5" r="3.2" fill="none" stroke="#3c3a34" stroke-width="1.1"/>
<circle cx="771.3" cy="1266.0" r="2.9" fill="none" stroke="#3c3a34" stroke-width="1.1"/>
<circle cx="364.4" cy="921.0" r="3.3" fill="none" stroke="#3c3a34" stroke-width="1.1"/>
<circle cx="366.9" cy="963.3" r="3.5" fill="none" stroke="#3c3a34" stroke-width="1.1"/>
<circle cx="365.7" cy="887.1" r="2.8" fill="none" stroke="#3c3a34" stroke-width="1.1"/>
<circle cx="387.3" cy="929.6" r="4.3" fill="none" stroke="#3c3a34" stroke-width="1.1"/>
<circle cx="387.7" cy="929.3" r="4.3" fill="none" stroke="#3c3a34" stroke-width="1.1"/>
<circle cx="392.6" cy="1167.9" r="3.3" fill="none" stroke="#3c3a34" stroke-width="1.1"/>
<circle cx="457.5" cy="1048.5" r="2.7" fill="none" stroke="#3c3a34" stroke-width="1.1"/>
<polygon points="598.4,668.5 606.2,669.1 608.0,644.5 600.2,643.9" fill="#c2c2ba" stroke="#7e7e76" stroke-width="0.9"/>
<polygon points="619.1,670.6 619.9,678.4 644.5,676.2 643.7,668.4" fill="#c2c2ba" stroke="#7e7e76" stroke-width="0.9"/>
<polygon points="672.7,740.8 680.4,739.6 676.7,715.2 669.0,716.4" fill="#c2c2ba" stroke="#7e7e76" stroke-width="0.9"/>
<circle cx="560.3" cy="725.4" r="2.4" fill="#3c3a34"/>
<circle cx="713.7" cy="845.0" r="2.4" fill="#3c3a34"/>
<circle cx="566.8" cy="624.0" r="10.4" fill="#4c8a4c" stroke="#2f5c2f" stroke-width="0.9" opacity="0.9"/>
<circle cx="708.5" cy="799.5" r="11.4" fill="#4c8a4c" stroke="#2f5c2f" stroke-width="0.9" opacity="0.9"/>
<polygon points="579.2,806.4 610.3,809.3 611.6,795.2 580.5,792.3" fill="#d9862f" stroke="#9c5c14" stroke-width="0.9"/>
<polygon points="583.8,862.7 612.4,862.2 612.2,848.1 583.6,848.6" fill="#d9862f" stroke="#9c5c14" stroke-width="0.9"/>
<polygon points="693.3,754.8 662.2,752.5 661.3,766.2 692.4,768.5" fill="#d9862f" stroke="#9c5c14" stroke-width="0.9"/>
<polygon points="697.1,822.9 663.6,826.9 665.3,841.1 698.8,837.1" fill="#d9862f" stroke="#9c5c14" stroke-width="0.9"/>
<polygon points="624.5,835.4 625.1,865.3 639.1,865.0 638.5,835.1" fill="#d9862f" stroke="#9c5c14" stroke-width="0.9"/>
<circle cx="702.2" cy="592.7" r="4.4" fill="none" stroke="#3c3a34" stroke-width="1.1"/>
<circle cx="569.5" cy="721.9" r="4.4" fill="none" stroke="#3c3a34" stroke-width="1.1"/>
<circle cx="570.1" cy="722.2" r="4.3" fill="none" stroke="#3c3a34" stroke-width="1.1"/>
<circle cx="717.3" cy="845.0" r="4.2" fill="none" stroke="#3c3a34" stroke-width="1.1"/>
<circle cx="716.7" cy="844.6" r="4.2" fill="none" stroke="#3c3a34" stroke-width="1.1"/>
<circle cx="716.1" cy="844.7" r="4.2" fill="none" stroke="#3c3a34" stroke-width="1.1"/>
<circle cx="565.2" cy="803.3" r="4.3" fill="none" stroke="#3c3a34" stroke-width="1.1"/>
<circle cx="564.6" cy="803.1" r="4.4" fill="none" stroke="#3c3a34" stroke-width="1.1"/>
<circle cx="564.0" cy="803.0" r="4.4" fill="none" stroke="#3c3a34" stroke-width="1.1"/>
<circle cx="569.8" cy="722.2" r="3.4" fill="none" stroke="#3c3a34" stroke-width="1.1"/>
<circle cx="570.5" cy="722.1" r="3.5" fill="none" stroke="#3c3a34" stroke-width="1.1"/>
<circle cx="717.1" cy="844.8" r="3.5" fill="none" stroke="#3c3a34" stroke-width="1.1"/>
<circle cx="716.4" cy="844.7" r="3.4" fill="none" stroke="#3c3a34" stroke-width="1.1"/>
<circle cx="564.9" cy="803.3" r="3.4" fill="none" stroke="#3c3a34" stroke-width="1.1"/>
<circle cx="564.2" cy="803.1" r="3.5" fill="none" stroke="#3c3a34" stroke-width="1.1"/>
<circle cx="563.7" cy="803.1" r="3.5" fill="none" stroke="#3c3a34" stroke-width="1.1"/>
<polygon points="647.4,898.6 668.5,908.0 691.6,856.4 670.5,847.0" fill="#8a3b2e" stroke="#5c231a" stroke-width="1"/>
<polygon points="645.6,912.1 645.3,919.9 670.0,920.9 670.3,913.1" fill="#c2c2ba" stroke="#7e7e76" stroke-width="0.9"/>
<polygon points="600.9,974.0 608.6,974.6 610.7,950.0 603.0,949.4" fill="#c2c2ba" stroke="#7e7e76" stroke-width="0.9"/>
<polygon points="673.9,1104.1 681.7,1104.6 683.3,1079.9 675.5,1079.4" fill="#c2c2ba" stroke="#7e7e76" stroke-width="0.9"/>
<polygon points="611.6,1192.2 611.7,1200.0 636.4,1199.8 636.3,1192.0" fill="#c2c2ba" stroke="#7e7e76" stroke-width="0.9"/>
<circle cx="560.3" cy="1027.0" r="2.4" fill="#3c3a34"/>
<circle cx="713.7" cy="1196.0" r="2.4" fill="#3c3a34"/>
<circle cx="565.5" cy="942.5" r="9.6" fill="#4c8a4c" stroke="#2f5c2f" stroke-width="0.9" opacity="0.9"/>
<circle cx="709.8" cy="1150.5" r="10.9" fill="#4c8a4c" stroke="#2f5c2f" stroke-width="0.9" opacity="0.9"/>
<polygon points="690.6,994.5 662.0,993.2 661.4,1007.5 690.0,1008.8" fill="#d9862f" stroke="#9c5c14" stroke-width="0.9"/>
<polygon points="577.5,1076.6 608.3,1082.0 610.7,1068.4 579.9,1063.0" fill="#d9862f" stroke="#9c5c14" stroke-width="0.9"/>
<polygon points="688.9,1135.7 659.2,1138.5 660.5,1152.3 690.2,1149.5" fill="#d9862f" stroke="#9c5c14" stroke-width="0.9"/>
<circle cx="686.7" cy="1092.5" r="4.4" fill="none" stroke="#3c3a34" stroke-width="1.1"/>
<circle cx="688.5" cy="886.0" r="4.0" fill="none" stroke="#3c3a34" stroke-width="1.1"/>
<circle cx="706.2" cy="962.0" r="4.3" fill="none" stroke="#3c3a34" stroke-width="1.1"/>
<circle cx="706.4" cy="962.6" r="4.2" fill="none" stroke="#3c3a34" stroke-width="1.1"/>
<circle cx="716.0" cy="966.0" r="4.2" fill="none" stroke="#3c3a34" stroke-width="1.1"/>
<circle cx="612.9" cy="988.0" r="4.0" fill="none" stroke="#3c3a34" stroke-width="1.1"/>
<circle cx="706.1" cy="962.5" r="3.3" fill="none" stroke="#3c3a34" stroke-width="1.1"/>
<circle cx="712.9" cy="912.3" r="2.3" fill="none" stroke="#3c3a34" stroke-width="1.1"/>
<polygon points="557.6,995.1 579.9,1001.5 595.5,947.1 573.2,940.7" fill="#8a3b2e" stroke="#5c231a" stroke-width="1"/>
<circle cx="717.9" cy="394.7" r="3.9" fill="none" stroke="#3c3a34" stroke-width="1.1"/>
<circle cx="715.2" cy="536.2" r="3.4" fill="none" stroke="#3c3a34" stroke-width="1.1"/>
<polygon points="671.7,562.5 673.3,585.5 729.7,581.5 728.1,558.5" fill="#8a3b2e" stroke="#5c231a" stroke-width="1"/>
<polygon points="645.9,1285.1 653.5,1286.9 659.3,1262.9 651.7,1261.1" fill="#c2c2ba" stroke="#7e7e76" stroke-width="0.9"/>
<polygon points="594.3,1338.4 602.1,1338.3 601.7,1313.6 593.9,1313.7" fill="#c2c2ba" stroke="#7e7e76" stroke-width="0.9"/>
<circle cx="560.3" cy="1352.0" r="2.4" fill="#3c3a34"/>
<circle cx="565.5" cy="1300.0" r="10.4" fill="#4c8a4c" stroke="#2f5c2f" stroke-width="0.9" opacity="0.9"/>
<circle cx="582.8" cy="1243.8" r="4.0" fill="none" stroke="#3c3a34" stroke-width="1.1"/>
<circle cx="566.8" cy="1248.4" r="4.2" fill="none" stroke="#3c3a34" stroke-width="1.1"/>
<circle cx="566.0" cy="1248.7" r="4.5" fill="none" stroke="#3c3a34" stroke-width="1.1"/>
<circle cx="579.2" cy="1246.8" r="4.6" fill="none" stroke="#3c3a34" stroke-width="1.1"/>
<circle cx="707.8" cy="1228.2" r="4.3" fill="none" stroke="#3c3a34" stroke-width="1.1"/>
<circle cx="707.4" cy="1227.6" r="4.4" fill="none" stroke="#3c3a34" stroke-width="1.1"/>
<circle cx="706.9" cy="1227.4" r="4.2" fill="none" stroke="#3c3a34" stroke-width="1.1"/>
<circle cx="706.2" cy="1227.1" r="4.2" fill="none" stroke="#3c3a34" stroke-width="1.1"/>
<circle cx="651.5" cy="1488.6" r="4.6" fill="none" stroke="#3c3a34" stroke-width="1.1"/>
<circle cx="566.5" cy="1248.8" r="3.4" fill="none" stroke="#3c3a34" stroke-width="1.1"/>
<circle cx="707.7" cy="1227.9" r="3.3" fill="none" stroke="#3c3a34" stroke-width="1.1"/>
<circle cx="707.0" cy="1227.7" r="3.3" fill="none" stroke="#3c3a34" stroke-width="1.1"/>
<circle cx="706.6" cy="1227.1" r="3.5" fill="none" stroke="#3c3a34" stroke-width="1.1"/>
<circle cx="706.1" cy="1226.8" r="3.4" fill="none" stroke="#3c3a34" stroke-width="1.1"/>
<polygon points="625.0,1236.2 605.3,1224.3 576.2,1272.8 595.9,1284.7" fill="#8a3b2e" stroke="#5c231a" stroke-width="1"/>
<circle cx="520.0" cy="1016.6" r="9.4" fill="#4c8a4c" stroke="#2f5c2f" stroke-width="0.9" opacity="0.9"/>
<circle cx="436.6" cy="1032.7" r="3.9" fill="none" stroke="#3c3a34" stroke-width="1.1"/>
<circle cx="451.6" cy="608.3" r="4.5" fill="none" stroke="#3c3a34" stroke-width="1.1"/>
<circle cx="442.3" cy="603.3" r="5.0" fill="none" stroke="#3c3a34" stroke-width="1.1"/>
<circle cx="439.2" cy="608.4" r="3.4" fill="none" stroke="#3c3a34" stroke-width="1.1"/>
<circle cx="520.4" cy="805.2" r="4.4" fill="none" stroke="#3c3a34" stroke-width="1.1"/>
<circle cx="494.3" cy="763.3" r="3.4" fill="none" stroke="#3c3a34" stroke-width="1.1"/>
<circle cx="509.6" cy="1482.4" r="5.1" fill="none" stroke="#3c3a34" stroke-width="1.1"/>
<circle cx="333.3" cy="1517.0" r="5.0" fill="none" stroke="#3c3a34" stroke-width="1.1"/>
<circle cx="447.0" cy="1000.7" r="3.9" fill="none" stroke="#3c3a34" stroke-width="1.1"/>
<circle cx="407.8" cy="998.5" r="2.9" fill="none" stroke="#3c3a34" stroke-width="1.1"/>
<circle cx="392.9" cy="768.9" r="2.9" fill="none" stroke="#3c3a34" stroke-width="1.1"/>
<circle cx="461.9" cy="805.9" r="2.8" fill="none" stroke="#3c3a34" stroke-width="1.1"/>
<circle cx="527.7" cy="1512.0" r="2.7" fill="none" stroke="#3c3a34" stroke-width="1.1"/>
<circle cx="258.2" cy="1463.7" r="3.4" fill="none" stroke="#3c3a34" stroke-width="1.1"/>
<polygon points="570.7,746.2 609.7,746.2 609.7,735.8 570.7,735.8" fill="#8a8749" stroke="#5f5c2e" stroke-width="0.9"/>
<polygon points="666.9,915.2 700.7,915.2 700.7,904.8 666.9,904.8" fill="#8a8749" stroke="#5f5c2e" stroke-width="0.9"/>
<polygon points="611.0,1108.9 611.0,1140.1 621.4,1140.1 621.4,1108.9" fill="#8a8749" stroke="#5f5c2e" stroke-width="0.9"/>
<polygon points="660.4,1240.2 702.0,1240.2 702.0,1229.8 660.4,1229.8" fill="#8a8749" stroke="#5f5c2e" stroke-width="0.9"/>
<circle cx="582.4" cy="1150.5" r="31.2" fill="none" stroke="#9a9078" stroke-width="1" stroke-dasharray="3 3"/>
<circle cx="702.0" cy="1072.5" r="36.4" fill="none" stroke="#9a9078" stroke-width="1" stroke-dasharray="3 3"/>
<circle cx="617.5" cy="1404.0" r="26.0" fill="none" stroke="#9a9078" stroke-width="1" stroke-dasharray="3 3"/>
<circle cx="735.8" cy="1280.5" r="28.6" fill="none" stroke="#9a9078" stroke-width="1" stroke-dasharray="3 3"/>
<circle cx="572.0" cy="546.0" r="20.8" fill="none" stroke="#9a9078" stroke-width="1" stroke-dasharray="3 3"/>
<circle cx="642.2" cy="591.5" r="4.5" fill="#2456a8" stroke="#fff" stroke-width="1.4"/>
<text x="649.2" y="595.0" font-size="10" font-weight="bold" fill="#2456a8">north street</text>
<circle cx="605.8" cy="494.0" r="4.5" fill="#2456a8" stroke="#fff" stroke-width="1.4"/>
<text x="612.8" y="497.5" font-size="10" font-weight="bold" fill="#2456a8">north plaza</text>
<circle cx="683.8" cy="819.0" r="4.5" fill="#2456a8" stroke="#fff" stroke-width="1.4"/>
<text x="690.8" y="822.5" font-size="10" font-weight="bold" fill="#2456a8">market</text>
<circle cx="592.8" cy="1040.0" r="4.5" fill="#2456a8" stroke="#fff" stroke-width="1.4"/>
<text x="599.8" y="1043.5" font-size="10" font-weight="bold" fill="#2456a8">mid street</text>
<circle cx="670.8" cy="1300.0" r="4.5" fill="#2456a8" stroke="#fff" stroke-width="1.4"/>
<text x="677.8" y="1303.5" font-size="10" font-weight="bold" fill="#2456a8">south street</text>
<circle cx="624.0" cy="1391.0" r="4.5" fill="#2456a8" stroke="#fff" stroke-width="1.4"/>
<text x="631.0" y="1394.5" font-size="10" font-weight="bold" fill="#2456a8">gate</text>
<circle cx="773.5" cy="824.2" r="4.5" fill="#2456a8" stroke="#fff" stroke-width="1.4"/>
<text x="780.5" y="827.7" font-size="10" font-weight="bold" fill="#2456a8">east alley</text>
<circle cx="520.0" cy="1016.6" r="4.5" fill="#2456a8" stroke="#fff" stroke-width="1.4"/>
<text x="527.0" y="1020.1" font-size="10" font-weight="bold" fill="#2456a8">west alley</text>
<text x="637" y="832" font-size="15" fill="#5d594d" text-anchor="middle" letter-spacing="6" transform="rotate(-90 637 832)">MAIN STREET</text>
<rect x="1268" y="12" width="252" height="1840" rx="8" fill="#f6f1e4" stroke="#cfc4a8" stroke-width="1.2"/>
<text x="1284" y="44" font-size="15" font-weight="bold" fill="#2b2823">Claude of Duty — map plan</text>
<text x="1284" y="60" font-size="10.5" fill="#7d7462">level space · +Z (north) is up</text>
<text x="1284" y="73" font-size="10.5" fill="#7d7462">gate vista at the bottom</text>
<rect x="1284" y="84" width="18" height="12" fill="#f8f4e9" stroke="#3a3630" stroke-width="2"/>
<text x="1310" y="90" font-size="11.5" fill="#2b2823">enterable building</text>
<rect x="1284" y="103" width="18" height="12" fill="#ccc5b2" stroke="#8d8672" stroke-width="1.6"/>
<text x="1310" y="109" font-size="11.5" fill="#2b2823">background block</text>
<rect x="1284" y="122" width="18" height="12" fill="url(#ruin)" stroke="#8d8672"/>
<text x="1310" y="128" font-size="11.5" fill="#2b2823">ruin / collapsed</text>
<line x1="1284" y1="147" x2="1288" y2="147" stroke="#3a3630" stroke-width="2"/><rect x="1288" y="144.5" width="13" height="5" fill="#1f7a4d"/><line x1="1288" y1="147" x2="1288" y2="160" stroke="#1f7a4d" stroke-width="1.2"/><path d="M 1288 160 A 13 13 0 0 0 1301 147" fill="none" stroke="#1f7a4d" stroke-width="1"/>
<text x="1310" y="147" font-size="11.5" fill="#2b2823">door + swing</text>
<line x1="1284" y1="166" x2="1302" y2="166" stroke="#1f7a8c" stroke-width="5" stroke-linecap="round"/>
<text x="1310" y="166" font-size="11.5" fill="#2b2823">open shopfront</text>
<line x1="1284" y1="185" x2="1302" y2="185" stroke="#6b6255" stroke-width="1.6"/>
<text x="1310" y="185" font-size="11.5" fill="#2b2823">interior partition / stairs</text>
<rect x="1284" y="198" width="18" height="12" fill="#d9862f" stroke="#9c5c14"/>
<text x="1310" y="204" font-size="11.5" fill="#2b2823">market stall</text>
<rect x="1284" y="217" width="18" height="12" fill="#c2c2ba" stroke="#7e7e76"/>
<text x="1310" y="223" font-size="11.5" fill="#2b2823">jersey barrier</text>
<rect x="1284" y="236" width="18" height="12" fill="#8a8749" stroke="#5f5c2e"/>
<text x="1310" y="242" font-size="11.5" fill="#2b2823">sandbags</text>
<rect x="1284" y="256" width="18" height="10" fill="#8a3b2e" stroke="#5c231a" rx="4"/>
<text x="1310" y="261" font-size="11.5" fill="#2b2823">wrecked vehicle</text>
<circle cx="1293" cy="280" r="6" fill="#4c8a4c" stroke="#2f5c2f"/>
<text x="1310" y="280" font-size="11.5" fill="#2b2823">palm</text>
<circle cx="1293" cy="299" r="6" fill="none" stroke="#9a9078" stroke-width="1" stroke-dasharray="3 3"/>
<text x="1310" y="299" font-size="11.5" fill="#2b2823">rubble pile</text>
<circle cx="1288" cy="318" r="2.6" fill="none" stroke="#3c3a34" stroke-width="1.1"/><circle cx="1293" cy="318" r="2.6" fill="none" stroke="#3c3a34" stroke-width="1.1"/><circle cx="1298" cy="318" r="2.6" fill="none" stroke="#3c3a34" stroke-width="1.1"/>
<text x="1310" y="318" font-size="11.5" fill="#2b2823">tyre</text>
<circle cx="1293" cy="337" r="3" fill="#3c3a34"/>
<text x="1310" y="337" font-size="11.5" fill="#2b2823">street lamp</text>
<circle cx="1293" cy="356" r="4.5" fill="#2456a8" stroke="#fff" stroke-width="1.4"/>
<text x="1310" y="356" font-size="11.5" fill="#2b2823">spawn point</text>
<rect x="1284" y="383" width="130" height="6" fill="#2b2823"/>
<rect x="1414" y="383" width="65" height="6" fill="#2b2823" stroke="#2b2823" stroke-width="1"/>
<text x="1284" y="403" font-size="10.5" fill="#2b2823">0</text>
<text x="1414" y="403" font-size="10.5" fill="#2b2823" text-anchor="middle">10 m</text>
<text x="1479" y="403" font-size="10.5" fill="#2b2823" text-anchor="middle">15 m</text>
<text x="1284" y="423" font-size="9.5" fill="#7d7462">generated by tools/map-floorplan.mjs</text>
<text x="1284" y="437" font-size="9.5" fill="#7d7462">from layout.js + placements + level.json</text>
<rect x="22" y="22" width="1226" height="1824" fill="none" stroke="#b3a88c" stroke-width="1.5"/>
<path d="M 48 34 L 54 56 L 48 51 L 42 56 Z" fill="#2b2823"/>
<text x="48" y="30" font-size="11" font-weight="bold" fill="#2b2823" text-anchor="middle">+Z</text>
</svg>
