<svg xmlns="http://www.w3.org/2000/svg" width="1526" height="1872" viewBox="0 0 1526 1872" font-family="DejaVu Sans,Verdana,sans-serif">

<defs>
  <pattern id="ruin" width="7" height="7" patternUnits="userSpaceOnUse" patternTransform="rotate(45)">
    <line x1="0" y1="0" x2="0" y2="7" stroke="#a49a86" stroke-width="1.4"/>
  </pattern>
  <pattern id="gravel" width="6" height="6" patternUnits="userSpaceOnUse">
    <circle cx="1.5" cy="1.5" r="0.8" fill="#b9ad93"/><circle cx="4.5" cy="4" r="0.7" fill="#b9ad93"/>
  </pattern>
</defs>
<rect width="1526" height="1872" fill="#efe9dc"/>
<rect x="286.0" y="990.6" width="266.5" height="52.0" fill="#e3d8bd" stroke="#cfc2a2" stroke-width="0.8"/>
<rect x="299.0" y="569.4" width="253.5" height="52.0" fill="#e3d8bd" stroke="#cfc2a2" stroke-width="0.8"/>
<rect x="312.0" y="759.2" width="240.5" height="52.0" fill="#e3d8bd" stroke="#cfc2a2" stroke-width="0.8"/>
<rect x="721.5" y="782.6" width="292.5" height="78.0" fill="#e3d8bd" stroke="#cfc2a2" stroke-width="0.8"/>
<rect x="721.5" y="1068.6" width="292.5" height="208.0" fill="url(#gravel)" stroke="#cfc2a2" stroke-width="0.8"/>
<rect x="247.0" y="1456.0" width="780.0" height="78.0" fill="#e3d8bd" stroke="#cfc2a2" stroke-width="0.8"/>
<rect x="552.5" y="286.0" width="169.0" height="1352.0" fill="#94907f" stroke="none"/>
<line x1="552.5" y1="1638.0" x2="552.5" y2="286.0" stroke="#6f6b5d" stroke-width="2.5"/>
<line x1="721.5" y1="1638.0" x2="721.5" y2="286.0" stroke="#6f6b5d" stroke-width="2.5"/>
<line x1="637.0" y1="1638.0" x2="637.0" y2="286.0" stroke="#c9c4b2" stroke-width="1.2" stroke-dasharray="8 7"/>
<rect x="488.8" y="1415.7" width="111.8" height="41.6" fill="#5c574c" stroke="#39352c" stroke-width="1.5"/>
<rect x="673.4" y="1415.7" width="63.7" height="41.6" fill="#5c574c" stroke="#39352c" stroke-width="1.5"/>
<rect x="686.4" y="1415.7" width="50.7" height="48.8" fill="#6b6558" stroke="#39352c" stroke-width="1.5"/>
<text x="612.9499999999999" y="1440.5" font-size="10" fill="#efe9dc" text-anchor="middle" font-weight="bold">GATE</text>
<rect x="396.5" y="390.0" width="156.0" height="182.0" fill="#f8f4e9" stroke="#3a3630" stroke-width="2.2"/>
<line x1="465.7" y1="567.6" x2="465.7" y2="394.4" stroke="#6b6255" stroke-width="1.6"/>
<text x="506.9" y="481.0" font-size="9.5" fill="#8a7f6c" text-anchor="middle" font-style="italic">living</text>
<text x="474.5" y="507" font-size="13" font-weight="bold" fill="#2b2823" text-anchor="middle">W5</text>
<text x="474.5" y="519" font-size="9.5" fill="#7d7462" text-anchor="middle">2F</text>
<rect x="370.5" y="624.0" width="182.0" height="130.0" fill="#f8f4e9" stroke="#3a3630" stroke-width="2.2"/>
<line x1="447.6" y1="749.6" x2="447.6" y2="628.4" stroke="#6b6255" stroke-width="1.6"/>
<text x="497.9" y="689.0" font-size="9.5" fill="#8a7f6c" text-anchor="middle" font-style="italic">shop</text>
<text x="461.5" y="715" font-size="13" font-weight="bold" fill="#2b2823" text-anchor="middle">W1</text>
<text x="461.5" y="727" font-size="9.5" fill="#7d7462" text-anchor="middle">2F</text>
<rect x="357.5" y="819.0" width="195.0" height="169.0" fill="#f8f4e9" stroke="#3a3630" stroke-width="2.2"/>
<line x1="464.3" y1="983.6" x2="464.3" y2="936.3" stroke="#6b6255" stroke-width="1.6"/>
<line x1="464.3" y1="922.0" x2="464.3" y2="823.4" stroke="#6b6255" stroke-width="1.6"/>
<line x1="361.9" y1="900.3" x2="426.4" y2="900.3" stroke="#6b6255" stroke-width="1.6"/>
<line x1="440.7" y1="900.3" x2="464.3" y2="900.3" stroke="#6b6255" stroke-width="1.6"/>
<text x="506.2" y="903.5" font-size="9.5" fill="#8a7f6c" text-anchor="middle" font-style="italic">shop</text>
<text x="413.1" y="941.9" font-size="9.5" fill="#8a7f6c" text-anchor="middle" font-style="italic">storage</text>
<text x="413.1" y="861.9" font-size="9.5" fill="#8a7f6c" text-anchor="middle" font-style="italic">living</text>
<rect x="371.8" y="864.5" width="31.2" height="81.9" fill="none" stroke="#6b6255" stroke-width="1.1" stroke-dasharray="4 3"/>
<text x="387.40000000000003" y="903.45" font-size="8" fill="#6b6255" text-anchor="middle">void</text>
<polygon points="380.2,910.1 395.8,910.1 424.4,910.1 408.8,910.1" fill="#efe7d2" stroke="#6b6255" stroke-width="1.1"/>
<defs><marker id="ahW2" markerWidth="7" markerHeight="7" refX="3" refY="3.5" orient="auto"><path d="M0,0 L6,3.5 L0,7 z" fill="#6b6255"/></marker></defs>
<line x1="388.0" y1="930.9" x2="388.0" y2="888.0" stroke="#6b6255" stroke-width="1.4" marker-end="url(#ahW2)"/>
<text x="387.9824" y="907.1352" font-size="8" fill="#6b6255" text-anchor="middle">stairs</text>
<text x="455" y="929.5" font-size="13" font-weight="bold" fill="#2b2823" text-anchor="middle">W2</text>
<text x="455" y="941.5" font-size="9.5" fill="#7d7462" text-anchor="middle">2F</text>
<rect x="383.5" y="1040.0" width="169.0" height="182.0" fill="#f8f4e9" stroke="#3a3630" stroke-width="2.2"/>
<rect x="383.5" y="1040.0" width="169.0" height="182.0" fill="url(#ruin)" stroke="none"/>
<line x1="468.0" y1="1217.6" x2="468.0" y2="1174.1" stroke="#6b6255" stroke-width="1.6"/>
<line x1="468.0" y1="1159.8" x2="468.0" y2="1105.0" stroke="#6b6255" stroke-width="1.6"/>
<text x="508.0" y="1131.0" font-size="9.5" fill="#8a7f6c" text-anchor="middle" font-style="italic">ruin</text>
<text x="428.0" y="1161.3" font-size="9.5" fill="#8a7f6c" text-anchor="middle" font-style="italic">ruin</text>
<text x="428.0" y="1074.7" font-size="9.5" fill="#8a7f6c" text-anchor="middle" font-style="italic">storage</text>
<text x="468" y="1157" font-size="13" font-weight="bold" fill="#2b2823" text-anchor="middle">W3</text>
<text x="468" y="1169" font-size="9.5" fill="#7d7462" text-anchor="middle">2F · ruin</text>
<rect x="344.5" y="1235.0" width="208.0" height="162.5" fill="#f8f4e9" stroke="#3a3630" stroke-width="2.2"/>
<line x1="432.6" y1="1393.1" x2="432.6" y2="1239.4" stroke="#6b6255" stroke-width="1.6"/>
<text x="490.3" y="1316.3" font-size="9.5" fill="#8a7f6c" text-anchor="middle" font-style="italic">workshop</text>
<text x="448.5" y="1342.25" font-size="13" font-weight="bold" fill="#2b2823" text-anchor="middle">W4</text>
<text x="448.5" y="1354.25" font-size="9.5" fill="#7d7462" text-anchor="middle">2F</text>
<rect x="721.5" y="364.0" width="156.0" height="182.0" fill="#f8f4e9" stroke="#3a3630" stroke-width="2.2"/>
<line x1="808.3" y1="541.6" x2="808.3" y2="368.4" stroke="#6b6255" stroke-width="1.6"/>
<text x="767.1" y="455.0" font-size="9.5" fill="#8a7f6c" text-anchor="middle" font-style="italic">storage</text>
<text x="799.5" y="481" font-size="13" font-weight="bold" fill="#2b2823" text-anchor="middle">E5</text>
<text x="799.5" y="493" font-size="9.5" fill="#7d7462" text-anchor="middle">2F</text>
<rect x="721.5" y="572.0" width="195.0" height="208.0" fill="#f8f4e9" stroke="#3a3630" stroke-width="2.2"/>
<line x1="725.9" y1="691.9" x2="753.4" y2="691.9" stroke="#6b6255" stroke-width="1.6"/>
<line x1="767.7" y1="691.9" x2="841.3" y2="691.9" stroke="#6b6255" stroke-width="1.6"/>
<line x1="841.3" y1="775.6" x2="841.3" y2="740.9" stroke="#6b6255" stroke-width="1.6"/>
<line x1="841.3" y1="726.6" x2="841.3" y2="691.9" stroke="#6b6255" stroke-width="1.6"/>
<text x="783.6" y="634.2" font-size="9.5" fill="#8a7f6c" text-anchor="middle" font-style="italic">shop</text>
<text x="783.6" y="733.8" font-size="9.5" fill="#8a7f6c" text-anchor="middle" font-style="italic">storage</text>
<rect x="848.9" y="673.4" width="23.4" height="88.4" fill="none" stroke="#6b6255" stroke-width="1.1" stroke-dasharray="4 3"/>
<text x="860.6" y="715.6" font-size="8" fill="#6b6255" text-anchor="middle">void</text>
<rect x="848.9" y="673.4" width="23.4" height="88.4" fill="none" stroke="#6b6255" stroke-width="1.1" stroke-dasharray="4 3"/>
<text x="860.6" y="715.6" font-size="8" fill="#6b6255" text-anchor="middle">void</text>
<polygon points="852.2,723.1 867.8,723.1 896.4,723.1 880.8,723.1" fill="#efe7d2" stroke="#6b6255" stroke-width="1.1"/>
<defs><marker id="ahE1" markerWidth="7" markerHeight="7" refX="3" refY="3.5" orient="auto"><path d="M0,0 L6,3.5 L0,7 z" fill="#6b6255"/></marker></defs>
<line x1="860.0" y1="743.9" x2="860.0" y2="701.0" stroke="#6b6255" stroke-width="1.4" marker-end="url(#ahE1)"/>
<text x="859.9551999999999" y="720.0808" font-size="8" fill="#6b6255" text-anchor="middle">stairs</text>
<text x="819" y="702" font-size="13" font-weight="bold" fill="#2b2823" text-anchor="middle">E1</text>
<text x="819" y="714" font-size="9.5" fill="#7d7462" text-anchor="middle">3F</text>
<rect x="721.5" y="858.0" width="182.0" height="182.0" fill="#f8f4e9" stroke="#3a3630" stroke-width="2.2"/>
<line x1="822.9" y1="1035.6" x2="822.9" y2="862.4" stroke="#6b6255" stroke-width="1.6"/>
<text x="774.4" y="987.1" font-size="9.5" fill="#8a7f6c" text-anchor="middle" font-style="italic">shop</text>
<text x="774.4" y="900.5" font-size="9.5" fill="#8a7f6c" text-anchor="middle" font-style="italic">ruin</text>
<text x="812.5" y="975" font-size="13" font-weight="bold" fill="#2b2823" text-anchor="middle">E2</text>
<text x="812.5" y="987" font-size="9.5" fill="#7d7462" text-anchor="middle">3F</text>
<rect x="721.5" y="1066.0" width="195.0" height="208.0" fill="#f8f4e9" stroke="#3a3630" stroke-width="2.2"/>
<rect x="721.5" y="1066.0" width="195.0" height="208.0" fill="url(#ruin)" stroke="none"/>
<line x1="809.7" y1="1269.6" x2="809.7" y2="1221.0" stroke="#6b6255" stroke-width="1.6"/>
<line x1="809.7" y1="1206.7" x2="809.7" y2="1130.2" stroke="#6b6255" stroke-width="1.6"/>
<text x="860.9" y="1170.0" font-size="9.5" fill="#8a7f6c" text-anchor="middle" font-style="italic">ruin</text>
<text x="767.8" y="1199.9" font-size="9.5" fill="#8a7f6c" text-anchor="middle" font-style="italic">storage</text>
<text x="767.8" y="1100.3" font-size="9.5" fill="#8a7f6c" text-anchor="middle" font-style="italic">ruin</text>
<text x="819" y="1196" font-size="13" font-weight="bold" fill="#2b2823" text-anchor="middle">E3</text>
<text x="819" y="1208" font-size="9.5" fill="#7d7462" text-anchor="middle">2F · ruin · collapsed</text>
<rect x="721.5" y="1300.0" width="182.0" height="182.0" fill="#f8f4e9" stroke="#3a3630" stroke-width="2.2"/>
<line x1="822.9" y1="1477.6" x2="822.9" y2="1304.4" stroke="#6b6255" stroke-width="1.6"/>
<text x="774.4" y="1391.0" font-size="9.5" fill="#8a7f6c" text-anchor="middle" font-style="italic">storage</text>
<text x="812.5" y="1417" font-size="13" font-weight="bold" fill="#2b2823" text-anchor="middle">E4</text>
<text x="812.5" y="1429" font-size="9.5" fill="#7d7462" text-anchor="middle">3F</text>
<rect x="526.5" y="1521.0" width="117.0" height="104.0" fill="#ccc5b2" stroke="#8d8672" stroke-width="1.6"/>
<text x="585" y="1577" font-size="13" font-weight="bold" fill="#2b2823" text-anchor="middle">BS3</text>
<text x="585" y="1589" font-size="9.5" fill="#7d7462" text-anchor="middle">4F</text>
<rect x="143.0" y="637.0" width="208.0" height="286.0" fill="#ccc5b2" stroke="#8d8672" stroke-width="1.6"/>
<text x="247" y="784" font-size="13" font-weight="bold" fill="#2b2823" text-anchor="middle">BW1</text>
<text x="247" y="796" font-size="9.5" fill="#7d7462" text-anchor="middle">3F</text>
<rect x="109.2" y="962.0" width="234.0" height="312.0" fill="#ccc5b2" stroke="#8d8672" stroke-width="1.6"/>
<text x="226.2" y="1122" font-size="13" font-weight="bold" fill="#2b2823" text-anchor="middle">BW2</text>
<text x="226.2" y="1134" font-size="9.5" fill="#7d7462" text-anchor="middle">2F</text>
<rect x="923.0" y="520.0" width="234.0" height="260.0" fill="#ccc5b2" stroke="#8d8672" stroke-width="1.6"/>
<text x="1040" y="654" font-size="13" font-weight="bold" fill="#2b2823" text-anchor="middle">BE1</text>
<text x="1040" y="666" font-size="9.5" fill="#7d7462" text-anchor="middle">3F</text>
<rect x="936.0" y="858.0" width="234.0" height="260.0" fill="#ccc5b2" stroke="#8d8672" stroke-width="1.6"/>
<text x="1053" y="992" font-size="13" font-weight="bold" fill="#2b2823" text-anchor="middle">BE2</text>
<text x="1053" y="1004" font-size="9.5" fill="#7d7462" text-anchor="middle">2F</text>
<rect x="923.0" y="1209.0" width="208.0" height="234.0" fill="#ccc5b2" stroke="#8d8672" stroke-width="1.6"/>
<text x="1027" y="1330" font-size="13" font-weight="bold" fill="#2b2823" text-anchor="middle">BE3</text>
<text x="1027" y="1342" font-size="9.5" fill="#7d7462" text-anchor="middle">3F</text>
<rect x="260.0" y="1547.0" width="260.0" height="182.0" fill="#ccc5b2" stroke="#8d8672" stroke-width="1.6"/>
<text x="390" y="1642" font-size="13" font-weight="bold" fill="#2b2823" text-anchor="middle">BS1</text>
<text x="390" y="1654" font-size="9.5" fill="#7d7462" text-anchor="middle">3F</text>
<rect x="663.0" y="1560.0" width="312.0" height="208.0" fill="#ccc5b2" stroke="#8d8672" stroke-width="1.6"/>
<text x="819" y="1668" font-size="13" font-weight="bold" fill="#2b2823" text-anchor="middle">BS2</text>
<text x="819" y="1680" font-size="9.5" fill="#7d7462" text-anchor="middle">2F</text>
<rect x="299.0" y="143.0" width="260.0" height="182.0" fill="#ccc5b2" stroke="#8d8672" stroke-width="1.6"/>
<text x="429" y="238" font-size="13" font-weight="bold" fill="#2b2823" text-anchor="middle">BN1</text>
<text x="429" y="250" font-size="9.5" fill="#7d7462" text-anchor="middle">2F</text>
<rect x="676.0" y="104.0" width="286.0" height="208.0" fill="#ccc5b2" stroke="#8d8672" stroke-width="1.6"/>
<text x="819" y="212" font-size="13" font-weight="bold" fill="#2b2823" text-anchor="middle">BN2</text>
<text x="819" y="224" font-size="9.5" fill="#7d7462" text-anchor="middle">3F</text>
<line x1="494.0" y1="586.3" x2="494.0" y2="557.7" stroke="#1f7a4d" stroke-width="4.5" stroke-linecap="round"/>
<path d="M 468.3 586.3 A 25.7 25.7 0 0 1 494.0 560.6" fill="none" stroke="#1f7a4d" stroke-width="1" opacity="0.75"/>
<line x1="494.0" y1="586.3" x2="468.3" y2="586.3" stroke="#1f7a4d" stroke-width="1" opacity="0.75"/>
<line x1="566.8" y1="517.4" x2="538.2" y2="517.4" stroke="#1f7a4d" stroke-width="4.5" stroke-linecap="round"/>
<path d="M 566.8 543.1 A 25.7 25.7 0 0 1 541.1 517.4" fill="none" stroke="#1f7a4d" stroke-width="1" opacity="0.75"/>
<line x1="566.8" y1="517.4" x2="566.8" y2="543.1" stroke="#1f7a4d" stroke-width="1" opacity="0.75"/>
<line x1="566.8" y1="689.0" x2="538.2" y2="689.0" stroke="#1f7a4d" stroke-width="4.5" stroke-linecap="round"/>
<path d="M 566.8 714.7 A 25.7 25.7 0 0 1 541.1 689.0" fill="none" stroke="#1f7a4d" stroke-width="1" opacity="0.75"/>
<line x1="566.8" y1="689.0" x2="566.8" y2="714.7" stroke="#1f7a4d" stroke-width="1" opacity="0.75"/>
<line x1="425.1" y1="609.7" x2="425.1" y2="638.3" stroke="#1f7a4d" stroke-width="4.5" stroke-linecap="round"/>
<path d="M 450.8 609.7 A 25.7 25.7 0 0 1 425.1 635.4" fill="none" stroke="#1f7a4d" stroke-width="1" opacity="0.75"/>
<line x1="425.1" y1="609.7" x2="450.8" y2="609.7" stroke="#1f7a4d" stroke-width="1" opacity="0.75"/>
<line x1="578.5" y1="924.6" x2="526.5" y2="924.6" stroke="#1f7a8c" stroke-width="5" stroke-linecap="round"/>
<line x1="566.8" y1="882.4" x2="538.2" y2="882.4" stroke="#1f7a4d" stroke-width="4.5" stroke-linecap="round"/>
<path d="M 566.8 908.1 A 25.7 25.7 0 0 1 541.1 882.4" fill="none" stroke="#1f7a4d" stroke-width="1" opacity="0.75"/>
<line x1="566.8" y1="882.4" x2="566.8" y2="908.1" stroke="#1f7a4d" stroke-width="1" opacity="0.75"/>
<line x1="566.8" y1="1203.8" x2="538.2" y2="1203.8" stroke="#1f7a4d" stroke-width="4.5" stroke-linecap="round"/>
<path d="M 566.8 1229.5 A 25.7 25.7 0 0 1 541.1 1203.8" fill="none" stroke="#1f7a4d" stroke-width="1" opacity="0.75"/>
<line x1="566.8" y1="1203.8" x2="566.8" y2="1229.5" stroke="#1f7a4d" stroke-width="1" opacity="0.75"/>
<line x1="490.1" y1="1411.8" x2="490.1" y2="1383.2" stroke="#1f7a4d" stroke-width="4.5" stroke-linecap="round"/>
<path d="M 464.4 1411.8 A 25.7 25.7 0 0 1 490.1 1386.1" fill="none" stroke="#1f7a4d" stroke-width="1" opacity="0.75"/>
<line x1="490.1" y1="1411.8" x2="464.4" y2="1411.8" stroke="#1f7a4d" stroke-width="1" opacity="0.75"/>
<line x1="566.8" y1="1255.3" x2="538.2" y2="1255.3" stroke="#1f7a4d" stroke-width="4.5" stroke-linecap="round"/>
<path d="M 566.8 1281.1 A 25.7 25.7 0 0 1 541.1 1255.3" fill="none" stroke="#1f7a4d" stroke-width="1" opacity="0.75"/>
<line x1="566.8" y1="1255.3" x2="566.8" y2="1281.1" stroke="#1f7a4d" stroke-width="1" opacity="0.75"/>
<line x1="707.2" y1="455.0" x2="735.8" y2="455.0" stroke="#1f7a4d" stroke-width="4.5" stroke-linecap="round"/>
<path d="M 707.2 429.3 A 25.7 25.7 0 0 1 732.9 455.0" fill="none" stroke="#1f7a4d" stroke-width="1" opacity="0.75"/>
<line x1="707.2" y1="455.0" x2="707.2" y2="429.3" stroke="#1f7a4d" stroke-width="1" opacity="0.75"/>
<line x1="780.0" y1="794.3" x2="780.0" y2="765.7" stroke="#1f7a4d" stroke-width="4.5" stroke-linecap="round"/>
<path d="M 754.3 794.3 A 25.7 25.7 0 0 1 780.0 768.6" fill="none" stroke="#1f7a4d" stroke-width="1" opacity="0.75"/>
<line x1="780.0" y1="794.3" x2="754.3" y2="794.3" stroke="#1f7a4d" stroke-width="1" opacity="0.75"/>
<line x1="707.2" y1="676.0" x2="735.8" y2="676.0" stroke="#1f7a4d" stroke-width="4.5" stroke-linecap="round"/>
<path d="M 707.2 650.3 A 25.7 25.7 0 0 1 732.9 676.0" fill="none" stroke="#1f7a4d" stroke-width="1" opacity="0.75"/>
<line x1="707.2" y1="676.0" x2="707.2" y2="650.3" stroke="#1f7a4d" stroke-width="1" opacity="0.75"/>
<line x1="776.1" y1="843.7" x2="776.1" y2="872.3" stroke="#1f7a4d" stroke-width="4.5" stroke-linecap="round"/>
<path d="M 801.8 843.7 A 25.7 25.7 0 0 1 776.1 869.4" fill="none" stroke="#1f7a4d" stroke-width="1" opacity="0.75"/>
<line x1="776.1" y1="843.7" x2="801.8" y2="843.7" stroke="#1f7a4d" stroke-width="1" opacity="0.75"/>
<line x1="707.2" y1="912.6" x2="735.8" y2="912.6" stroke="#1f7a4d" stroke-width="4.5" stroke-linecap="round"/>
<path d="M 707.2 886.9 A 25.7 25.7 0 0 1 732.9 912.6" fill="none" stroke="#1f7a4d" stroke-width="1" opacity="0.75"/>
<line x1="707.2" y1="912.6" x2="707.2" y2="886.9" stroke="#1f7a4d" stroke-width="1" opacity="0.75"/>
<line x1="707.2" y1="1128.4" x2="735.8" y2="1128.4" stroke="#1f7a4d" stroke-width="4.5" stroke-linecap="round"/>
<path d="M 707.2 1102.7 A 25.7 25.7 0 0 1 732.9 1128.4" fill="none" stroke="#1f7a4d" stroke-width="1" opacity="0.75"/>
<line x1="707.2" y1="1128.4" x2="707.2" y2="1102.7" stroke="#1f7a4d" stroke-width="1" opacity="0.75"/>
<line x1="776.1" y1="1496.3" x2="776.1" y2="1467.7" stroke="#1f7a4d" stroke-width="4.5" stroke-linecap="round"/>
<path d="M 750.4 1496.3 A 25.7 25.7 0 0 1 776.1 1470.6" fill="none" stroke="#1f7a4d" stroke-width="1" opacity="0.75"/>
<line x1="776.1" y1="1496.3" x2="750.4" y2="1496.3" stroke="#1f7a4d" stroke-width="1" opacity="0.75"/>
<line x1="707.2" y1="1391.0" x2="735.8" y2="1391.0" stroke="#1f7a4d" stroke-width="4.5" stroke-linecap="round"/>
<path d="M 707.2 1365.3 A 25.7 25.7 0 0 1 732.9 1391.0" fill="none" stroke="#1f7a4d" stroke-width="1" opacity="0.75"/>
<line x1="707.2" y1="1391.0" x2="707.2" y2="1365.3" stroke="#1f7a4d" stroke-width="1" opacity="0.75"/>
<polygon points="579.8,799.6 611.0,802.0 618.1,801.5 587.0,799.0" fill="#d9862f" stroke="#9c5c14" stroke-width="0.9"/>
<polygon points="583.7,856.1 612.3,854.7 619.4,855.0 590.9,856.5" fill="#d9862f" stroke="#9c5c14" stroke-width="0.9"/>
<polygon points="692.9,761.4 661.7,759.6 654.6,760.0 685.7,761.8" fill="#d9862f" stroke="#9c5c14" stroke-width="0.9"/>
<polygon points="698.0,830.5 664.4,833.5 657.3,832.9 690.9,829.8" fill="#d9862f" stroke="#9c5c14" stroke-width="0.9"/>
<polygon points="632.5,835.3 631.1,865.1 630.7,858.0 632.2,828.1" fill="#d9862f" stroke="#9c5c14" stroke-width="0.9"/>
<polygon points="690.2,1002.5 661.8,999.5 654.7,1000.2 683.1,1003.3" fill="#d9862f" stroke="#9c5c14" stroke-width="0.9"/>
<polygon points="578.6,1070.6 609.6,1074.4 616.7,1073.5 585.7,1069.8" fill="#d9862f" stroke="#9c5c14" stroke-width="0.9"/>
<polygon points="689.5,1141.9 659.9,1146.1 652.8,1145.1 682.4,1140.9" fill="#d9862f" stroke="#9c5c14" stroke-width="0.9"/>
<polygon points="586.4,654.5 620.0,658.5 624.5,658.0 590.9,653.9" fill="#c2c2ba" stroke="#7e7e76" stroke-width="0.9"/>
<polygon points="630.6,656.5 633.0,690.3 633.3,685.7 630.9,652.0" fill="#c2c2ba" stroke="#7e7e76" stroke-width="0.9"/>
<polygon points="657.9,729.7 691.5,726.3 696.0,726.8 662.4,730.1" fill="#c2c2ba" stroke="#7e7e76" stroke-width="0.9"/>
<polygon points="658.6,899.6 657.0,933.4 656.7,928.8 658.4,895.1" fill="#c2c2ba" stroke="#7e7e76" stroke-width="0.9"/>
<polygon points="588.9,961.2 622.7,962.8 627.2,962.6 593.5,960.9" fill="#c2c2ba" stroke="#7e7e76" stroke-width="0.9"/>
<polygon points="661.8,1090.3 695.4,1093.7 699.9,1093.2 666.3,1089.9" fill="#c2c2ba" stroke="#7e7e76" stroke-width="0.9"/>
<polygon points="623.6,1179.1 624.4,1212.9 624.4,1208.3 623.7,1174.6" fill="#c2c2ba" stroke="#7e7e76" stroke-width="0.9"/>
<polygon points="636.0,1270.6 669.2,1277.4 673.6,1276.5 640.5,1269.7" fill="#c2c2ba" stroke="#7e7e76" stroke-width="0.9"/>
<polygon points="581.1,1326.0 614.9,1326.0 619.5,1326.0 585.6,1326.0" fill="#c2c2ba" stroke="#7e7e76" stroke-width="0.9"/>
<polygon points="570.7,741.0 609.7,741.0 614.9,741.0 575.9,741.0" fill="#8a8749" stroke="#5f5c2e" stroke-width="0.9"/>
<polygon points="666.9,910.0 700.7,910.0 705.9,910.0 672.1,910.0" fill="#8a8749" stroke="#5f5c2e" stroke-width="0.9"/>
<polygon points="616.2,1108.9 616.2,1140.1 616.2,1134.9 616.2,1103.7" fill="#8a8749" stroke="#5f5c2e" stroke-width="0.9"/>
<polygon points="660.4,1235.0 702.0,1235.0 707.2,1235.0 665.6,1235.0" fill="#8a8749" stroke="#5f5c2e" stroke-width="0.9"/>
<polygon points="643.4,865.8 695.6,889.2 706.9,884.1 654.7,860.8" fill="#8a3b2e" stroke="#5c231a" stroke-width="1" rx="6"/>
<polygon points="625.1,1269.2 576.1,1239.8 565.5,1246.1 614.5,1275.6" fill="#8a3b2e" stroke="#5c231a" stroke-width="1" rx="6"/>
<polygon points="698.7,543.5 702.7,600.5 703.6,588.2 699.6,531.2" fill="#8a3b2e" stroke="#5c231a" stroke-width="1" rx="6"/>
<polygon points="549.1,963.2 604.0,979.0 615.9,975.6 560.9,959.8" fill="#8a3b2e" stroke="#5c231a" stroke-width="1" rx="6"/>
<circle cx="566.8" cy="624.0" r="10.4" fill="#4c8a4c" stroke="#2f5c2f" stroke-width="0.9" opacity="0.9"/>
<circle cx="708.5" cy="799.5" r="11.4" fill="#4c8a4c" stroke="#2f5c2f" stroke-width="0.9" opacity="0.9"/>
<circle cx="565.5" cy="942.5" r="9.6" fill="#4c8a4c" stroke="#2f5c2f" stroke-width="0.9" opacity="0.9"/>
<circle cx="709.8" cy="1150.5" r="10.9" fill="#4c8a4c" stroke="#2f5c2f" stroke-width="0.9" opacity="0.9"/>
<circle cx="565.5" cy="1300.0" r="10.4" fill="#4c8a4c" stroke="#2f5c2f" stroke-width="0.9" opacity="0.9"/>
<circle cx="747.5" cy="819.0" r="8.8" fill="#4c8a4c" stroke="#2f5c2f" stroke-width="0.9" opacity="0.9"/>
<circle cx="520.0" cy="1016.6" r="9.4" fill="#4c8a4c" stroke="#2f5c2f" stroke-width="0.9" opacity="0.9"/>
<circle cx="560.3" cy="725.4" r="2.4" fill="#3c3a34"/>
<circle cx="713.7" cy="845.0" r="2.4" fill="#3c3a34"/>
<circle cx="560.3" cy="1027.0" r="2.4" fill="#3c3a34"/>
<circle cx="713.7" cy="1196.0" r="2.4" fill="#3c3a34"/>
<circle cx="560.3" cy="1352.0" r="2.4" fill="#3c3a34"/>
<circle cx="582.4" cy="1150.5" r="31.2" fill="none" stroke="#9a9078" stroke-width="1" stroke-dasharray="3 3"/>
<circle cx="702.0" cy="1072.5" r="36.4" fill="none" stroke="#9a9078" stroke-width="1" stroke-dasharray="3 3"/>
<circle cx="617.5" cy="1404.0" r="26.0" fill="none" stroke="#9a9078" stroke-width="1" stroke-dasharray="3 3"/>
<circle cx="735.8" cy="1280.5" r="28.6" fill="none" stroke="#9a9078" stroke-width="1" stroke-dasharray="3 3"/>
<circle cx="572.0" cy="546.0" r="20.8" fill="none" stroke="#9a9078" stroke-width="1" stroke-dasharray="3 3"/>
<circle cx="575.9" cy="721.5" r="2.1" fill="none" stroke="#3c3a34" stroke-width="1.1"/>
<circle cx="569.4" cy="715.0" r="2.1" fill="none" stroke="#3c3a34" stroke-width="1.1"/>
<circle cx="562.9" cy="721.5" r="2.1" fill="none" stroke="#3c3a34" stroke-width="1.1"/>
<circle cx="569.4" cy="728.0" r="2.1" fill="none" stroke="#3c3a34" stroke-width="1.1"/>
<circle cx="712.4" cy="962.0" r="2.1" fill="none" stroke="#3c3a34" stroke-width="1.1"/>
<circle cx="702.6" cy="956.4" r="2.1" fill="none" stroke="#3c3a34" stroke-width="1.1"/>
<circle cx="702.6" cy="967.6" r="2.1" fill="none" stroke="#3c3a34" stroke-width="1.1"/>
<circle cx="724.1" cy="845.0" r="2.1" fill="none" stroke="#3c3a34" stroke-width="1.1"/>
<circle cx="719.6" cy="838.8" r="2.1" fill="none" stroke="#3c3a34" stroke-width="1.1"/>
<circle cx="712.3" cy="841.2" r="2.1" fill="none" stroke="#3c3a34" stroke-width="1.1"/>
<circle cx="712.3" cy="848.8" r="2.1" fill="none" stroke="#3c3a34" stroke-width="1.1"/>
<circle cx="719.6" cy="851.2" r="2.1" fill="none" stroke="#3c3a34" stroke-width="1.1"/>
<circle cx="573.3" cy="1248.0" r="2.1" fill="none" stroke="#3c3a34" stroke-width="1.1"/>
<circle cx="563.6" cy="1242.4" r="2.1" fill="none" stroke="#3c3a34" stroke-width="1.1"/>
<circle cx="563.6" cy="1253.6" r="2.1" fill="none" stroke="#3c3a34" stroke-width="1.1"/>
<circle cx="642.2" cy="591.5" r="4.5" fill="#2456a8" stroke="#fff" stroke-width="1.4"/>
<text x="649.2" y="595.0" font-size="10" font-weight="bold" fill="#2456a8">north street</text>
<circle cx="605.8" cy="494.0" r="4.5" fill="#2456a8" stroke="#fff" stroke-width="1.4"/>
<text x="612.8" y="497.5" font-size="10" font-weight="bold" fill="#2456a8">north plaza</text>
<circle cx="683.8" cy="819.0" r="4.5" fill="#2456a8" stroke="#fff" stroke-width="1.4"/>
<text x="690.8" y="822.5" font-size="10" font-weight="bold" fill="#2456a8">market</text>
<circle cx="592.8" cy="1040.0" r="4.5" fill="#2456a8" stroke="#fff" stroke-width="1.4"/>
<text x="599.8" y="1043.5" font-size="10" font-weight="bold" fill="#2456a8">mid street</text>
<circle cx="670.8" cy="1300.0" r="4.5" fill="#2456a8" stroke="#fff" stroke-width="1.4"/>
<text x="677.8" y="1303.5" font-size="10" font-weight="bold" fill="#2456a8">south street</text>
<circle cx="624.0" cy="1391.0" r="4.5" fill="#2456a8" stroke="#fff" stroke-width="1.4"/>
<text x="631.0" y="1394.5" font-size="10" font-weight="bold" fill="#2456a8">gate</text>
<circle cx="773.5" cy="824.2" r="4.5" fill="#2456a8" stroke="#fff" stroke-width="1.4"/>
<text x="780.5" y="827.7" font-size="10" font-weight="bold" fill="#2456a8">east alley</text>
<circle cx="520.0" cy="1016.6" r="4.5" fill="#2456a8" stroke="#fff" stroke-width="1.4"/>
<text x="527.0" y="1020.1" font-size="10" font-weight="bold" fill="#2456a8">west alley</text>
<text x="637" y="832" font-size="15" fill="#5d594d" text-anchor="middle" letter-spacing="6" transform="rotate(-90 637 832)">MAIN STREET</text>
<rect x="1268" y="12" width="252" height="1840" rx="8" fill="#f6f1e4" stroke="#cfc4a8" stroke-width="1.2"/>
<text x="1284" y="44" font-size="16" font-weight="bold" fill="#2b2823">Claude of Duty — map plan</text>
<text x="1284" y="60" font-size="10.5" fill="#7d7462">level space · -Z (gate) is up</text>
<rect x="1284" y="74" width="18" height="12" fill="#f8f4e9" stroke="#3a3630" stroke-width="2"/>
<text x="1310" y="80" font-size="11.5" fill="#2b2823">enterable building</text>
<rect x="1284" y="93" width="18" height="12" fill="#ccc5b2" stroke="#8d8672" stroke-width="1.6"/>
<text x="1310" y="99" font-size="11.5" fill="#2b2823">background block</text>
<rect x="1284" y="112" width="18" height="12" fill="url(#ruin)" stroke="#8d8672"/>
<text x="1310" y="118" font-size="11.5" fill="#2b2823">ruin / collapsed</text>
<line x1="1284" y1="137" x2="1302" y2="137" stroke="#1f7a4d" stroke-width="4.5" stroke-linecap="round"/><path d="M 1302 137 A 11 11 0 0 1 1313 148" fill="none" stroke="#1f7a4d" stroke-width="1"/>
<text x="1310" y="137" font-size="11.5" fill="#2b2823">door + swing</text>
<line x1="1284" y1="156" x2="1302" y2="156" stroke="#1f7a8c" stroke-width="5" stroke-linecap="round"/>
<text x="1310" y="156" font-size="11.5" fill="#2b2823">open shopfront</text>
<line x1="1284" y1="175" x2="1302" y2="175" stroke="#6b6255" stroke-width="1.6"/>
<text x="1310" y="175" font-size="11.5" fill="#2b2823">interior partition / stairs</text>
<rect x="1284" y="188" width="18" height="12" fill="#d9862f" stroke="#9c5c14"/>
<text x="1310" y="194" font-size="11.5" fill="#2b2823">market stall</text>
<rect x="1284" y="207" width="18" height="12" fill="#c2c2ba" stroke="#7e7e76"/>
<text x="1310" y="213" font-size="11.5" fill="#2b2823">jersey barrier</text>
<rect x="1284" y="226" width="18" height="12" fill="#8a8749" stroke="#5f5c2e"/>
<text x="1310" y="232" font-size="11.5" fill="#2b2823">sandbags</text>
<rect x="1284" y="246" width="18" height="10" fill="#8a3b2e" stroke="#5c231a" rx="4"/>
<text x="1310" y="251" font-size="11.5" fill="#2b2823">wrecked vehicle</text>
<circle cx="1293" cy="270" r="6" fill="#4c8a4c" stroke="#2f5c2f"/>
<text x="1310" y="270" font-size="11.5" fill="#2b2823">palm</text>
<circle cx="1293" cy="289" r="4.5" fill="#2456a8" stroke="#fff" stroke-width="1.4"/>
<text x="1310" y="289" font-size="11.5" fill="#2b2823">spawn point</text>
<rect x="1284" y="316" width="130" height="6" fill="#2b2823"/>
<rect x="1414" y="316" width="65" height="6" fill="#2b2823" stroke="#2b2823" stroke-width="1"/>
<text x="1284" y="336" font-size="10.5" fill="#2b2823">0</text>
<text x="1414" y="336" font-size="10.5" fill="#2b2823" text-anchor="middle">10 m</text>
<text x="1479" y="336" font-size="10.5" fill="#2b2823" text-anchor="middle">15 m</text>
<text x="1284" y="356" font-size="9.5" fill="#7d7462">generated by tools/map-floorplan.mjs</text>
<text x="1284" y="370" font-size="9.5" fill="#7d7462">from tools/worldgen/layout.js + level.json</text>
<rect x="22" y="22" width="1226" height="1824" fill="none" stroke="#b3a88c" stroke-width="1.5"/>
<path d="M 48 34 L 54 56 L 48 51 L 42 56 Z" fill="#2b2823"/>
<text x="48" y="30" font-size="11" font-weight="bold" fill="#2b2823" text-anchor="middle">-Z</text>
</svg>
